<?xml version="1.0" encoding="utf-8"?>
<svg version="1.1" width="1204" height="311" xmlns="http://www.w3.org/2000/svg">
  <defs/>
  <path d="M 0 0 C 0.998 0.456 1.995 0.913 3.023 1.383 C 19.609 9.699 31.628 23.793 37.792 41.241 C 39.7 47.183 40.681 52.916 41.188 59.125 C 41.266 60.037 41.344 60.95 41.425 61.89 C 43.482 87.528 40.429 111.99 23.906 132.613 C 11.63 146.856 -3.14 155.775 -22 158 C -26.032 158.253 -29.969 158.232 -34 158 C -34.812 157.969 -35.624 157.938 -36.461 157.906 C -43.317 157.438 -53.751 149.39 -54.049 148.732 C -56.684 146.282 -58.052 145.34 -61 144 C -64.168 143.666 -64.168 143.666 -67 144 C -68.654 145.654 -68.13 147.603 -68.133 149.875 C -68.134 150.86 -68.135 151.845 -68.137 152.859 C -68.131 154.414 -68.131 154.414 -68.125 156 C -68.129 157.036 -68.133 158.073 -68.137 159.141 C -68.135 160.618 -68.135 160.618 -68.133 162.125 C -68.131 163.49 -68.131 163.49 -68.129 164.883 C -68.236 166.985 -67.042 181.272 -67.013 182.346 C -66.962 188.42 -66.76 192.279 -71 197 C -77.359 203.248 -85.577 207.148 -94.5 207.438 C -100.664 207.159 -107.015 206.503 -111.887 202.418 C -117.529 196.147 -118.347 190.252 -118.617 182.062 C -118.654 181.089 -118.692 180.116 -118.731 179.114 C -119.1 168.748 -119.145 158.386 -119.133 148.016 C -119.134 145.961 -119.135 143.906 -119.137 141.852 C -119.14 136.431 -119.136 131.01 -119.129 125.589 C -119.125 122.232 -119.122 118.875 -119.119 115.518 C -119.071 63.711 -119.071 63.711 -118.736 38.83 C -118.704 36.422 -118.677 34.014 -118.654 31.605 C -118.622 28.355 -118.57 25.105 -118.512 21.855 C -118.505 20.94 -118.499 20.025 -118.492 19.083 C -118.343 12.715 -117.502 7.502 -112.812 2.813 C -104.173 -2.755 -95.223 -6.079 -84.75 -4.5 C -79.631 -3.165 -75.33 -1.216 -72 3 C -70.508 6.938 -69.645 10.845 -69 15 C -68.216 13.989 -67.432 12.979 -66.625 11.938 C -49.51 -7.903 -22.569 -10.604 0 0 Z M -58.281 49.824 C -61.48 53.874 -63.777 58.361 -66 63 C -66.33 63.66 -66.66 64.32 -67 65 C -67.27 68.702 -67.232 72.414 -67.25 76.125 C -67.271 77.146 -67.291 78.167 -67.312 79.219 C -67.36 88.545 -65.547 95.195 -59.105 102.172 C -50.808 109.377 -41.6 110.642 -31 110 C -22.522 108.696 -16.487 103.541 -11.359 96.863 C -7.752 91.09 -7.145 85.702 -7 79 C -6.938 78.016 -6.876 77.033 -6.812 76.02 C -6.42 66.54 -8.709 57.34 -15 50 C -26.693 40.095 -47 38.663 -58.281 49.824 Z" fill="#28ABA2" transform="translate(849,88)"/>
  <path d="M 0 0 C 1.681 1.652 3.351 3.316 5 5 C 5.66 5 6.32 5 7 5 C 7.062 4.278 7.124 3.556 7.188 2.813 C 8.633 -2.191 12.278 -4.852 16.688 -7.312 C 24.654 -10.574 35.058 -10.451 43.246 -8.047 C 47.796 -5.91 51.633 -3.536 54 1 C 55.907 8.557 56.297 16.009 56.291 23.767 C 56.297 24.887 56.304 26.007 56.311 27.162 C 56.33 30.833 56.334 34.504 56.336 38.176 C 56.342 40.75 56.349 43.324 56.356 45.898 C 56.368 51.281 56.372 56.665 56.371 62.049 C 56.369 68.236 56.391 74.424 56.422 80.611 C 56.452 86.606 56.459 92.6 56.457 98.595 C 56.46 101.126 56.385 103.573 56.4 106.104 C 56.572 136.956 55.082 147.738 48.916 147.832 C 38.583 149.32 8.427 150.69 8 145 C 7.172 142.082 7.172 142.082 6.75 138.813 C 6.6 137.726 6.451 136.639 6.297 135.52 C 6.199 134.688 6.101 133.857 6 133 C 4.848 134.098 1.108 140.783 -2 143 C -5.758 145.581 -8.292 147.314 -14.375 149.5 C -18.072 150.74 -52.412 154.575 -64.711 147.918 C -69.19 145.306 -73.086 142.384 -77 139 C -77.798 138.38 -78.596 137.76 -79.418 137.121 C -94.687 124.646 -101.08 106.766 -103.738 87.77 C -105.587 61.137 -100.403 34.993 -85 13 C -81.812 9.579 -78.367 6.482 -74.875 3.375 C -72.181 0.976 -62.673 -4.337 -61.378 -5.221 C -41.871 -16.211 -18.403 -11.65 0 0 Z M -38.851 40.925 C -43.509 42.568 -49.119 47.984 -52.522 52.254 C -55.046 57.382 -55.52 62.369 -55.437 68.125 C -55.431 68.863 -55.425 69.602 -55.419 70.363 C -55.223 77.347 -53.64 83.528 -51 90 C -50.734 90.708 -50.469 91.415 -50.195 92.145 C -47.59 97.84 -42.304 100.254 -37 103 C -36.01 104.259 -23.916 106.924 -22.921 107 C -12.486 105.581 -12.565 105.581 -4 100 C -2.027 95.083 -0.975 90.195 0 85 C 0.193 84.33 0.387 83.659 0.586 82.969 C 2.558 73.594 2.356 58.074 -1.625 49.5 C -7.605 43.205 -14.24 39.481 -22.996 38.75 C -28.711 38.636 -33.475 38.97 -38.851 40.925 Z" fill="#27ABA2" transform="translate(304,92)"/>
  <path d="M 0 0 C 5.25 4.528 7.266 14.498 7.312 15.94 C 7.391 18.402 6.812 19.788 6.188 21.188 C 3.255 28.605 0.2 33.599 -6 38 C -14.521 42.355 -25.19 38.381 -33.875 36.063 C -52.291 30.416 -58.221 29.722 -70.348 34.523 C -74.048 37.681 -74.815 38.575 -75.437 43.375 C -74.906 47.777 -73.185 50.083 -70 53 C -66.838 54.722 -66.838 54.722 -63.187 55.875 C -62.172 56.233 -62.172 56.233 -61.135 56.598 C -58.765 57.423 -56.384 58.215 -54 59 C -53.054 59.312 -52.109 59.625 -51.134 59.946 C -49.093 60.62 -47.052 61.292 -45.01 61.965 C -24.056 68.883 -0.392 77.205 11 97.875 C 17.661 112.985 16.458 132.07 10.781 147.262 C 7.376 154.648 2.699 160.259 -3 166 C -4.33 167.392 -4.33 167.392 -5.687 168.813 C -20.972 183.27 -40.587 185.223 -60.812 185.313 C -62.636 185.321 -62.636 185.321 -64.497 185.33 C -76.397 185.234 -86.878 183.603 -97.875 179 C -98.822 178.605 -99.768 178.21 -100.744 177.802 C -111.622 173.087 -122.553 167.75 -127.301 156.227 C -129.732 148.483 -129.765 141.343 -126 134 C -121.989 129.086 -116.082 125.679 -110 124 C -103.917 123.436 -99.335 125.014 -93.75 127.125 C -91.983 127.768 -90.214 128.409 -88.445 129.047 C -87.547 129.372 -86.649 129.698 -85.724 130.033 C -81.386 131.573 -77.012 132.986 -72.625 134.375 C -71.847 134.625 -71.07 134.875 -70.269 135.133 C -61.674 137.842 -52.004 140.239 -43.5 136.188 C -40.623 134.649 -39.908 133.862 -38 131 C -37.569 125.654 -37.52 122.32 -41 118 C -44.539 114.801 -47.453 113.285 -52.051 112.07 C -53.216 111.753 -54.382 111.436 -55.583 111.109 C -56.814 110.785 -58.045 110.46 -59.312 110.125 C -79.803 104.475 -99.723 98.48 -115 83 C -115.697 82.323 -116.395 81.646 -117.113 80.949 C -124.971 72.831 -128.88 60.344 -129.062 49.188 C -129.311 47.687 -127.934 33.023 -126.914 31.188 C -123.31 15.496 -109.621 2.434 -96.437 -6.062 C -69.398 -21.578 -22.707 -21.617 0 0 Z" fill="#174743" transform="translate(700,59)"/>
  <path d="M 0 0 C 0.991 0.004 1.983 -0.007 3.004 -0.011 C 6.256 -0.019 9.508 -0.014 12.76 -0.007 C 15.035 -0.008 17.309 -0.01 19.584 -0.013 C 24.342 -0.016 29.099 -0.011 33.857 -0.002 C 39.94 0.009 46.022 0.003 52.105 -0.009 C 56.799 -0.016 61.493 -0.014 66.188 -0.009 C 68.43 -0.008 70.672 -0.009 72.914 -0.014 C 76.054 -0.019 79.193 -0.011 82.332 0 C 83.707 -0.006 83.707 -0.006 85.11 -0.012 C 94.821 0.051 102.525 1.312 110.133 7.652 C 112.23 8.921 112.858 10.986 113.538 12.55 C 117.546 20.972 118.852 33.711 111.2 42.095 C 108.683 44.573 101.665 46.193 100.995 46.551 C 91.855 48.503 83.131 49.521 74.01 49.454 C 72.497 49.45 70.983 49.448 69.47 49.446 C 65.512 49.438 61.553 49.418 57.594 49.396 C 53.545 49.376 49.496 49.367 45.447 49.356 C 37.52 49.335 29.593 49.301 21.666 49.259 C 21.608 53.634 20.598 78.979 21.787 82.102 C 22.546 82.086 25.184 82.228 25.966 82.212 C 33.145 82.071 40.323 81.965 47.503 81.896 C 51.194 81.86 54.883 81.81 58.573 81.731 C 62.14 81.654 65.705 81.613 69.272 81.595 C 71.284 81.576 73.295 81.521 75.307 81.466 C 81.412 81.463 85.655 81.532 90.438 85.583 C 96.11 91.38 96.843 96.792 97.104 104.759 C 96.943 111.782 96.053 116.568 91.275 121.774 C 82.91 129.436 70.486 128.405 59.85 128.575 C 58.753 128.596 57.655 128.617 56.525 128.638 C 53.051 128.703 49.577 128.762 46.104 128.821 C 43.736 128.865 41.368 128.908 39 128.952 C 33.222 129.059 27.444 129.161 21.666 129.259 C 21.67 129.848 21.675 130.438 21.679 131.045 C 21.724 137.227 21.754 143.408 21.776 149.59 C 21.786 151.891 21.799 154.192 21.817 156.494 C 21.841 159.818 21.853 163.142 21.861 166.466 C 21.872 167.481 21.882 168.496 21.893 169.542 C 21.894 176.315 21.811 182.729 20.38 189.348 C 19.445 193.669 13.274 198.967 11.934 199.59 C 4.483 202.73 -8.372 202.228 -16.141 200.02 C -21.887 197.434 -24.99 195.466 -25.771 193.205 C -26.128 192.172 -27.201 171.448 -27.198 170.461 C -27.2 169.421 -28.478 47.424 -28.467 43.774 C -28.468 43.03 -28.469 42.285 -28.47 41.518 C -28.47 39.965 -28.469 38.412 -28.464 36.86 C -28.459 34.499 -28.464 32.139 -28.471 29.778 C -28.47 28.256 -28.469 26.734 -28.467 25.212 C -28.469 24.517 -28.471 23.822 -28.473 23.106 C -28.418 11.571 -28.982 9.189 -25.899 4.312 C -20.581 -0.516 -6.779 -0.03 0 0 Z" fill="#154441" transform="translate(99.333984375,41.7412109375)"/>
  <path d="M 0 0 C 4.287 4.098 4.605 9.435 4.918 15.113 C 5.1 23.742 5.075 32.37 5 41 C 6.039 41.086 7.078 41.173 8.148 41.262 C 20.071 42.401 30.112 45.461 39 54 C 42.967 59.426 42.623 64.515 42 71 C 40.63 77.056 37.823 81.903 32.813 85.625 C 31.884 86.079 30.956 86.533 30 87 C 29.432 87.28 28.863 87.559 28.277 87.848 C 20.537 91.054 12.212 90.255 4 90 C 4.072 90.681 2.79 142.517 7.875 150.625 C 13.017 156.372 17.795 156.867 25.273 158.059 C 32.405 159.86 36.773 164.25 41 170 C 43.741 174.609 43.432 179.787 43 185 C 42 188.625 39.542 190.961 38.375 193.188 C 34.28 198.751 30.31 201.699 24.615 204.16 C 19.877 205.682 15.187 205.59 10.25 205.5 C 9.189 205.488 8.128 205.476 7.034 205.463 C -6.782 205.114 -20.795 200.853 -31 191 C -31.517 190.484 -32.956 189 -33 189 C -45.384 175.142 -48.421 157.425 -48.512 139.387 C -48.529 138.038 -50.833 92.392 -51.777 92.078 C -59.901 89.36 -64.144 86.774 -68.617 79.297 C -70.227 75.46 -70.445 72.15 -70.375 68.063 C -70.392 67.046 -70.392 67.046 -70.41 66.01 C -70.374 59.743 -68.847 55.154 -64.75 50.375 C -59.254 45.629 -55.15 42.869 -48 41 C -48.01 40.402 -48.021 39.803 -48.032 39.187 C -48.509 7.712 -48.509 7.712 -41.844 -1.191 C -30.535 -12.284 -11.725 -8.085 0 0 Z" fill="#2AACA3" transform="translate(1117,39)"/>
  <path d="M 0 0 C 6.995 5.631 9.149 12.174 10.125 20.875 C 10.211 21.538 10.969 48.609 10.628 61.366 C 10.564 63.772 9.368 189.988 9.392 192.138 C 9.426 195.132 9.462 202.426 9.487 203.759 C 9.444 212.418 6.35 219.21 0.512 225.563 C -5.475 231.255 -11.792 231.309 -19.676 231.203 C -26.469 230.788 -31.106 229.362 -35.875 224.375 C -41.577 217.847 -42.467 209.455 -42.687 201.125 C -42.722 200.212 -42.756 199.3 -42.791 198.359 C -43.018 191.665 -42.308 37.844 -42.291 36.39 C -41.975 10.359 -41.975 10.359 -35.531 3.418 C -25.55 -6.258 -11.994 -5.416 0 0 Z" fill="#28ABA2" transform="translate(948,14)"/>
  <path d="M0 0 C2.80227481 1.72447681 4.53348404 1.72772468 7.7265625 1.0625 C8.93509549 0.30332916 10.12065958 -0.49291048 11.2890625 -1.3125 C20.48954583 -7.49297735 32.33536055 -6.33844677 42.71484375 -4.37109375 C47.0157918 -3.37418526 49.97680787 -2.61410783 53.2890625 0.375 C57.73125112 8.67996133 57.97954671 17.46679508 55.4140625 26.5 C54.87784605 28.03029808 54.31870244 29.55296015 53.7265625 31.0625 C53.3553125 32.01125 52.9840625 32.96 52.6015625 33.9375 C48.37219809 38.73077967 41.88904239 40.03739566 35.93408203 41.76489258 C23.6359783 45.36781886 13.11700661 50.81467386 6.44921875 62.25390625 C1.94734202 71.4659316 2.61421254 81.50536566 2.734375 91.53125 C2.75188643 94.14973574 2.76879517 96.76822557 2.78515625 99.38671875 C2.8148802 103.48138613 2.85068292 107.57590637 2.89794922 111.67041016 C2.9431105 115.64479617 2.96375704 119.61915948 2.984375 123.59375 C3.00299591 124.80961792 3.02161682 126.02548584 3.040802 127.27819824 C3.06477107 135.2683548 2.65340194 142.3830447 -2.4609375 148.8125 C-11.66861895 156.17864516 -18.4427924 157.81523012 -30.2734375 157.0625 C-36.94222983 155.85301853 -41.64510359 151.84293878 -46.2734375 147.0625 C-49.73501701 141.87013074 -49.39884719 136.00895218 -49.40283203 129.91699219 C-49.4045447 129.23615507 -49.40625736 128.55531796 -49.40802193 127.85384941 C-49.41231243 125.60566699 -49.40939109 123.35755837 -49.40625 121.109375 C-49.40752092 119.50824962 -49.40913583 117.90712447 -49.41107178 116.30599976 C-49.41507213 111.14148104 -49.40775117 105.97700968 -49.3984375 100.8125 C-49.39702003 99.93828148 -49.39560257 99.06406296 -49.39414215 98.16335297 C-49.37646231 87.58116005 -49.3438438 76.99907819 -49.29987526 66.41696358 C-49.27867246 61.11877125 -49.2687449 55.82069263 -49.26757812 50.52246094 C-49.26444011 44.48529786 -49.23316897 38.44909934 -49.17376709 32.41223145 C-49.15700898 30.27874203 -49.15022036 28.14514879 -49.15386963 26.01159668 C-49.1565996 23.09262397 -49.12240424 20.1763964 -49.078125 17.2578125 C-49.08720886 16.43115082 -49.09629272 15.60448914 -49.10565186 14.7527771 C-48.94573954 8.44365165 -46.64989658 4.56061705 -42.2734375 0.0625 C-30.71897345 -9.05924388 -11.63144852 -8.04149527 0 0 Z " fill="#2DADA5" transform="translate(503.2734375,87.9375)"/>
  <path d="M0 0 C4.88371098 4.74805234 6.74779417 8.61903295 6.98291016 15.42211914 C7.01120218 16.14849359 7.03949421 16.87486803 7.06864357 17.62325382 C7.15545685 20.14468088 7.20648261 22.6649614 7.25 25.1875 C7.26814507 26.12870068 7.28629013 27.06990135 7.30498505 28.03962326 C7.442997 35.83733813 7.49157187 43.63481726 7.5234375 51.43359375 C7.52876118 52.66323412 7.53408485 53.89287449 7.53956985 55.15977669 C7.56608503 61.64874772 7.58554106 68.13770081 7.60009766 74.62670898 C7.61350223 79.97161796 7.6408523 85.31612908 7.68212891 90.66088867 C7.73147313 97.15795841 7.75621711 103.65468459 7.76332474 110.15193367 C7.77001885 112.61381876 7.78519251 115.0756967 7.80921555 117.53747368 C7.84091893 120.97778293 7.84089741 124.4167601 7.83349609 127.85717773 C7.84990143 128.8605014 7.86630676 129.86382507 7.88320923 130.89755249 C7.82199005 137.87716922 6.29565475 143.41844853 2.25 149.1875 C-4.64878288 155.34595216 -12.24220664 157.70173705 -21.390625 157.43359375 C-27.95549673 156.7488472 -34.37370627 154.96392547 -39.16644859 150.22626781 C-44.95955331 142.76784532 -45.32937668 132.78071481 -45.23583984 123.73706055 C-45.23963654 122.55661667 -45.24343323 121.37617279 -45.24734497 120.15995789 C-45.25469327 116.29776569 -45.23345347 112.43634288 -45.2109375 108.57421875 C-45.20652672 105.87286731 -45.20754695 103.17152339 -45.2081604 100.47016907 C-45.20629609 94.82759211 -45.18904448 89.18523225 -45.16162109 83.54272461 C-45.1301032 77.03398764 -45.11962805 70.52548724 -45.1210922 64.01667947 C-45.12244588 57.05701205 -45.10855799 50.09743482 -45.09019899 43.13779473 C-45.08595182 41.14344312 -45.0848312 39.14908567 -45.08372116 37.15472984 C-45.07937949 33.43335595 -45.06186152 29.71227713 -45.04052734 25.9909668 C-45.04143372 24.89419617 -45.04234009 23.79742554 -45.04327393 22.66741943 C-44.96344156 13.13235327 -43.48554578 6.27754819 -36.75 -0.8125 C-26.48105351 -8.84304692 -10.38720241 -6.84611068 0 0 Z " fill="#2FAEA5" transform="translate(424.75,87.8125)"/>
  <path d="M0 0 C4.0635617 3.97200832 4.37496302 8.30634003 4.50787354 13.78161621 C4.51974042 16.06466699 4.52055997 18.3477913 4.51269531 20.63085938 C4.51619995 21.88030838 4.51970459 23.12975739 4.52331543 24.41706848 C4.53059557 27.83238203 4.52890886 31.24745237 4.52255726 34.66275215 C4.51748021 38.24339236 4.52219345 41.82402245 4.52532959 45.40466309 C4.52896427 51.41676694 4.52418322 57.42882159 4.51464844 63.44091797 C4.50376483 70.38351494 4.50729076 77.32599442 4.51830125 84.26858854 C4.52738833 90.23819084 4.52865246 96.20775785 4.52342391 102.17736483 C4.52031202 105.73888352 4.51987336 109.30034707 4.52649689 112.86186218 C4.53336699 116.83308449 4.52383436 120.80417606 4.51269531 124.77539062 C4.51674377 125.95063797 4.52079224 127.12588531 4.52496338 128.33674622 C4.46021753 140.79309508 4.46021753 140.79309508 0.01171875 145.65234375 C-0.85710937 146.39097656 -1.7259375 147.12960938 -2.62109375 147.890625 C-3.91660156 149.01017578 -3.91660156 149.01017578 -5.23828125 150.15234375 C-10.78908224 154.69155017 -14.03387099 156.5942056 -21.40625 156.484375 C-28.75921546 155.6005461 -37.18706075 152.17484002 -42.74609375 147.203125 C-45.95769224 142.23465904 -46.8683135 136.62942829 -46.88653564 130.82717896 C-46.89224579 129.73651123 -46.89795593 128.64584351 -46.90383911 127.52212524 C-46.90495697 126.33033661 -46.90607483 125.13854797 -46.90722656 123.91064453 C-46.91219147 122.65173401 -46.91715637 121.39282349 -46.92227173 120.09576416 C-46.93537049 116.6452955 -46.94183555 113.19484627 -46.94628239 109.74435663 C-46.94921672 107.58743053 -46.95332217 105.43050971 -46.95778656 103.27358627 C-46.9714538 96.52143349 -46.98112468 89.76929281 -46.98498845 83.01712716 C-46.9894698 75.22918112 -47.00702438 67.44141053 -47.03598905 59.65351784 C-47.05761683 53.62876118 -47.06769329 47.60405386 -47.06902957 41.5792588 C-47.07007666 37.9830086 -47.0759641 34.38692351 -47.09384918 30.79071426 C-47.113416 26.77849958 -47.10903657 22.76665167 -47.10253906 18.75439453 C-47.11175385 17.56665436 -47.12096863 16.37891418 -47.13046265 15.15518188 C-47.09493162 8.16077456 -46.70167196 3.24563198 -41.62109375 -1.984375 C-28.55555341 -10.22134608 -12.62099332 -8.25840246 0 0 Z " fill="#27ABA2" transform="translate(1028.74609375,88.796875)"/>
  <path d="M0 0 C6.86492835 4.63270492 11.9564531 10.51961354 13.67578125 18.80078125 C14.94968106 27.44181253 13.87978525 32.73454196 9 40 C8.6390625 40.6290625 8.278125 41.258125 7.90625 41.90625 C4.03638285 48.20860507 -2.23897734 52.00652232 -9.3125 53.875 C-11.1378125 53.936875 -11.1378125 53.936875 -13 54 C-13.9796875 54.08378906 -14.959375 54.16757813 -15.96875 54.25390625 C-24.25997573 54.70914878 -29.56567482 53.30365572 -36 48 C-42.97960746 41.39007514 -45.86396588 34.30014846 -46.25 24.75 C-46.102302 15.96196898 -43.21994957 8.27807994 -37 2 C-34.70431069 0.2627216 -32.65688525 -0.76644614 -30 -2 C-29.113125 -2.4125 -28.22625 -2.825 -27.3125 -3.25 C-17.8219384 -5.3988064 -8.750639 -4.21464393 0 0 Z " fill="#31AEA6" transform="translate(420,23)"/>
  <path d="M0 0 C6.08381167 4.12461808 10.88273042 9.37914733 12.546875 16.67578125 C13.61147969 26.2082761 12.34759487 35.71918732 6.88671875 43.78125 C2.4753463 49.22194268 -2.02778774 53.66765934 -9.11328125 54.78125 C-11.81812682 54.97504651 -14.46911201 55.11171614 -17.17578125 55.15625 C-17.84867188 55.17042969 -18.5215625 55.18460938 -19.21484375 55.19921875 C-25.20156551 55.14064026 -29.89088751 53.70533586 -34.44140625 49.765625 C-41.27300628 41.8231957 -44.49711015 34.85512877 -44.33203125 24.125 C-43.36820259 13.7982644 -40.06680727 5.62498169 -32.11328125 -1.21875 C-22.59183542 -7.09368466 -9.39148506 -5.41616144 0 0 Z " fill="#33AFA7" transform="translate(1022.11328125,22.21875)"/>
  <path d="M0 0 C3 1 3 1 3 1 Z " fill="#FEFFFF" transform="translate(618,276)"/>
  <path d="" fill="#FEFEFE" transform="translate(0,0)"/>
  <path d="M0 0 C2 1 2 1 2 1 Z " fill="#FDFDFD" transform="translate(284,243)"/>
  <path d="M0 0 C2 1 2 1 2 1 Z " fill="#FEFFFF" transform="translate(678,242)"/>
  <path d="M0 0 C2 1 2 1 2 1 Z " fill="#FEFEFE" transform="translate(637,183)"/>
  <path d="" fill="#FEFEFE" transform="translate(0,0)"/>
  <path d="" fill="#FEFEFE" transform="translate(0,0)"/>
  <path d="" fill="#FFFFFF" transform="translate(0,0)"/>
  <path d="" fill="#FDFDFD" transform="translate(0,0)"/>
  <path d="" fill="#FEFFFF" transform="translate(0,0)"/>
  <path d="" fill="#FEFFFE" transform="translate(0,0)"/>
  <path d="" fill="#FFFFFF" transform="translate(0,0)"/>
  <path d="" fill="#FEFEFE" transform="translate(0,0)"/>
  <path d="" fill="#FEFEFE" transform="translate(0,0)"/>
  <path d="" fill="#FEFFFF" transform="translate(0,0)"/>
  <path d="" fill="#FEFFFE" transform="translate(0,0)"/>
  <path d="" fill="#FFFFFF" transform="translate(0,0)"/>
  <path d="" fill="#FEFEFE" transform="translate(0,0)"/>
  <path d="" fill="#FDFDFD" transform="translate(0,0)"/>
  <path d="" fill="#FEFEFE" transform="translate(0,0)"/>
  <path d="" fill="#FFFFFF" transform="translate(0,0)"/>
  <path d="" fill="#FEFEFE" transform="translate(0,0)"/>
  <path d="" fill="#FFFFFF" transform="translate(0,0)"/>
  <path d="" fill="#FFFFFF" transform="translate(0,0)"/>
  <path d="" fill="#FEFEFE" transform="translate(0,0)"/>
  <path d="" fill="#FEFEFE" transform="translate(0,0)"/>
  <path d="" fill="#FEFEFE" transform="translate(0,0)"/>
  <path d="" fill="#FEFEFE" transform="translate(0,0)"/>
  <path d="" fill="#FEFEFE" transform="translate(0,0)"/>
  <path d="" fill="#FEFEFE" transform="translate(0,0)"/>
  <path d="" fill="#FEFEFE" transform="translate(0,0)"/>
  <path d="" fill="#FEFEFE" transform="translate(0,0)"/>
  <path d="" fill="#FEFEFE" transform="translate(0,0)"/>
  <path d="" fill="#FEFEFE" transform="translate(0,0)"/>
  <path d="" fill="#FEFEFE" transform="translate(0,0)"/>
  <path d="" fill="#FEFEFE" transform="translate(0,0)"/>
  <path d="" fill="#FEFEFE" transform="translate(0,0)"/>
  <path d="" fill="#FEFEFE" transform="translate(0,0)"/>
  <path d="" fill="#FEFEFE" transform="translate(0,0)"/>
  <path d="" fill="#FEFEFE" transform="translate(0,0)"/>
  <path d="" fill="#FEFEFE" transform="translate(0,0)"/>
  <path d="" fill="#FFFFFF" transform="translate(0,0)"/>
  <path d="" fill="#FEFEFE" transform="translate(0,0)"/>
</svg>